<?xml version="1.0" encoding="UTF-8"?>
<svg id="Layer_2" data-name="Layer 2" xmlns="http://www.w3.org/2000/svg" xmlns:xlink="http://www.w3.org/1999/xlink" viewBox="0 0 260.14 103.77">
  <defs>
    <style>
      .cls-1 {
        fill: url(#Gradiente_sem_nome_29);
      }

      .cls-2 {
        fill: url(#Gradiente_sem_nome_29-8);
      }

      .cls-3 {
        fill: url(#Gradiente_sem_nome_29-7);
      }

      .cls-4 {
        fill: url(#Gradiente_sem_nome_29-5);
      }

      .cls-5 {
        fill: url(#Gradiente_sem_nome_29-2);
      }

      .cls-6 {
        fill: url(#Gradiente_sem_nome_29-3);
      }

      .cls-7 {
        fill: url(#Gradiente_sem_nome_29-9);
      }

      .cls-8 {
        fill: url(#Gradiente_sem_nome_29-6);
      }

      .cls-9 {
        fill: url(#Gradiente_sem_nome_29-4);
      }

      .cls-10 {
        fill: #eee;
      }
    </style>
    <linearGradient id="Gradiente_sem_nome_29" data-name="Gradiente sem nome 29" x1="78.52" y1="106.3" x2="194.21" y2="30.12" gradientUnits="userSpaceOnUse">
      <stop offset="0" stop-color="#ff1f65"/>
      <stop offset="1" stop-color="#ff9027"/>
    </linearGradient>
    <linearGradient id="Gradiente_sem_nome_29-2" data-name="Gradiente sem nome 29" x1="94.25" y1="130.2" x2="209.95" y2="54.02" xlink:href="#Gradiente_sem_nome_29"/>
    <linearGradient id="Gradiente_sem_nome_29-3" data-name="Gradiente sem nome 29" x1="104.13" y1="145.2" x2="219.82" y2="69.02" xlink:href="#Gradiente_sem_nome_29"/>
    <linearGradient id="Gradiente_sem_nome_29-4" data-name="Gradiente sem nome 29" x1="111.67" y1="156.66" x2="227.37" y2="80.48" xlink:href="#Gradiente_sem_nome_29"/>
    <linearGradient id="Gradiente_sem_nome_29-5" data-name="Gradiente sem nome 29" x1="119.31" y1="168.27" x2="235.01" y2="92.09" xlink:href="#Gradiente_sem_nome_29"/>
    <linearGradient id="Gradiente_sem_nome_29-6" data-name="Gradiente sem nome 29" x1="57.73" y1="74.75" x2="173.43" y2="-1.44" xlink:href="#Gradiente_sem_nome_29"/>
    <linearGradient id="Gradiente_sem_nome_29-7" data-name="Gradiente sem nome 29" x1="65.08" y1="85.89" x2="180.77" y2="9.71" xlink:href="#Gradiente_sem_nome_29"/>
    <linearGradient id="Gradiente_sem_nome_29-8" data-name="Gradiente sem nome 29" x1="46.59" y1="57.83" x2="162.29" y2="-18.35" xlink:href="#Gradiente_sem_nome_29"/>
    <linearGradient id="Gradiente_sem_nome_29-9" data-name="Gradiente sem nome 29" x1="78.74" y1="106.65" x2="194.44" y2="30.47" xlink:href="#Gradiente_sem_nome_29"/>
  </defs>
  <g id="Camada_1" data-name="Camada 1">
    <g>
      <g>
        <g id="pacto">
          <path class="cls-1" d="M140.91,59.04c-1.2-1.42-2.71-2.56-4.52-3.42-1.81-.86-3.94-1.3-6.37-1.3h-16.48s.89,2.29.89,2.29v43.93s-.91,2.29-.91,2.29h14.19s-.89-2.29-.89-2.29v-16.02s3.15,0,3.15,0c2.44,0,4.56-.43,6.37-1.29,1.81-.86,3.33-2,4.55-3.42,1.22-1.42,2.13-3.03,2.74-4.84.61-1.81.91-3.66.91-5.54,0-1.88-.3-3.73-.91-5.54-.61-1.81-1.51-3.43-2.72-4.84ZM130.97,74.63c-.16,1.7-.38,3.22-.66,4.57-.28,1.35-.63,2.42-1.04,3.23-.41.81-.89,1.21-1.42,1.21h-1.02s0-28.42,0-28.42h1.02c.57,0,1.07.4,1.51,1.21.44.81.79,1.88,1.06,3.23.27,1.35.47,2.87.59,4.57.13,1.7.19,3.43.19,5.2,0,1.77-.08,3.51-.24,5.2Z"/>
          <path class="cls-5" d="M171.52,71.78c-1.22-1.03-2.72-1.79-4.5-2.25-1.78-.47-3.82-.7-6.12-.7-.23,0-.84.05-1.83.15-.99.1-2.14.2-3.44.3-1.3.1-2.63.2-3.97.3-1.35.1-2.5.15-3.46.15h-1.53s1.53,11.6,1.53,11.6h1.53s5.19-8.67,5.19-8.67c.6-.99,1.35-1.73,2.25-2.21.91-.48,1.78-.63,2.61-.45.83.18,1.56.73,2.17,1.64.61.91.91,2.27.91,4.08v2.89c-2.32,0-4.53.27-6.63.83-2.1.55-3.94,1.37-5.52,2.46-1.59,1.09-2.84,2.44-3.76,4.04-.92,1.6-1.38,3.45-1.38,5.54,0,1.61.29,3.12.87,4.5.58,1.39,1.39,2.59,2.44,3.61,1.05,1.02,2.31,1.82,3.8,2.4,1.49.58,3.15.87,4.99.87h17.59s0-20.77,0-20.77c0-2.46-.32-4.54-.95-6.22-.64-1.69-1.56-3.04-2.78-4.08ZM162.84,101.96h-.34c-.4,0-.79-.31-1.19-.94-.4-.62-.75-1.43-1.06-2.42-.31-.99-.57-2.12-.76-3.38-.2-1.26-.3-2.54-.3-3.85,0-1.19.11-2.48.34-3.87.23-1.39.52-2.68.89-3.87.37-1.19.77-2.18,1.19-2.97.43-.79.84-1.19,1.23-1.19v22.48Z"/>
          <path class="cls-6" d="M205.97,96.26c-.57.75-1.19,1.4-1.87,1.93-.68.54-1.42.96-2.21,1.25-.79.3-1.6.45-2.42.45-1.1,0-2.2-.26-3.27-.79-1.08-.52-2.04-1.33-2.89-2.42-.85-1.09-1.53-2.46-2.04-4.12-.51-1.66-.76-3.62-.76-5.88v-.42c0-.51.01-1.27.04-2.29.03-1.02.1-2.15.21-3.38.11-1.23.28-2.49.49-3.76.21-1.27.5-2.43.87-3.46.37-1.03.82-1.87,1.36-2.51.54-.64,1.19-.94,1.95-.91.76.03,1.45.28,2.06.77.61.48,1.18,1.18,1.72,2.08l5.18,8.54h1.53s1.53-11.6,1.53-11.6h-3.23c-1.13,0-2.18-.05-3.14-.15-.96-.1-1.91-.2-2.83-.3-.92-.1-1.86-.2-2.83-.3-.96-.1-2.01-.15-3.14-.15-2.52,0-4.72.52-6.61,1.57-1.88,1.05-3.46,2.41-4.72,4.1-1.26,1.69-2.2,3.58-2.83,5.67-.62,2.1-.94,4.19-.94,6.29,0,2.8.43,5.28,1.29,7.41.86,2.14,2.02,3.95,3.48,5.42,1.46,1.47,3.15,2.59,5.08,3.34,1.93.75,3.94,1.13,6.03,1.13,2.1,0,3.97-.21,5.61-.64,1.64-.42,3.09-1.05,4.33-1.89,1.25-.83,2.33-1.88,3.25-3.12.92-1.25,1.71-2.68,2.36-4.29h-1.32c-.34.88-.79,1.69-1.36,2.44Z"/>
          <path class="cls-9" d="M223.78,62h-.98c-.28.93-.94,1.86-1.96,2.78-1.02.92-2.18,1.75-3.48,2.48-1.3.74-2.64,1.33-4.02,1.78-1.37.45-2.57.68-3.59.68v1.32s1.61,0,1.61,0v20.48c0,2.8.4,5.08,1.22,6.82.82,1.74,1.94,3.05,3.36,3.93,1.42.88,3.07,1.36,4.97,1.45,1.9.09,3.92-.13,6.08-.64v-1.1c-1.19.14-2.03-.3-2.51-1.32-.48-1.02-.72-2.69-.72-5.01v-24.6s3.32,0,3.32,0v-1.32s-3.31,0-3.31,0v-7.73Z"/>
          <path class="cls-4" d="M259.21,80.19c-.62-2.1-1.56-3.99-2.82-5.67-1.26-1.69-2.83-3.05-4.71-4.1-1.88-1.05-4.09-1.57-6.61-1.57h-2.63c-2.52,0-4.72.52-6.61,1.57-1.88,1.05-3.46,2.41-4.72,4.1-1.26,1.69-2.2,3.58-2.83,5.67-.62,2.1-.94,4.19-.94,6.29,0,2.1.31,4.18.93,6.25.62,2.07,1.56,3.92,2.82,5.55,1.26,1.63,2.83,2.95,4.71,3.97,1.88,1.02,4.08,1.53,6.61,1.53h2.63c2.52,0,4.72-.51,6.61-1.53,1.88-1.02,3.46-2.34,4.72-3.97,1.26-1.63,2.2-3.48,2.83-5.54.62-2.07.94-4.15.94-6.25,0-2.1-.31-4.19-.93-6.29ZM246.84,86.69c0,1.59-.08,3.32-.24,5.2-.16,1.88-.37,3.64-.64,5.27-.27,1.63-.6,2.99-.98,4.08-.38,1.09-.8,1.64-1.25,1.64-.45,0-.86-.55-1.23-1.64-.37-1.09-.69-2.45-.98-4.08-.28-1.63-.5-3.38-.66-5.27-.16-1.88-.23-3.62-.23-5.2v-.42c0-1.05.04-2.19.11-3.42.07-1.23.17-2.46.3-3.67.13-1.22.28-2.39.47-3.53.18-1.13.4-2.14.64-3.02.24-.88.5-1.58.77-2.1.27-.52.55-.79.83-.79.28,0,.56.26.83.79.27.52.52,1.23.76,2.1.24.88.45,1.88.64,3.02.18,1.13.34,2.31.47,3.53.13,1.22.23,2.44.3,3.68.07,1.23.11,2.37.11,3.42v.42Z"/>
        </g>
        <g>
          <polygon class="cls-8" points="126.69 16.98 113.52 16.98 114.4 19.25 114.4 47.52 113.52 49.8 127.57 49.8 126.69 47.52 126.69 16.98"/>
          <path class="cls-3" d="M146.08,49.8h14.05l-.88-2.27v-22.09c0-1.07-.09-2.15-.27-3.24-.18-1.09-.61-2.1-1.28-3.01-.67-.91-1.67-1.65-2.99-2.23-1.32-.57-3.1-.86-5.34-.86-1.46,0-2.71.25-3.74.76-1.04.5-2.02,1.08-2.94,1.72l-1.09-1.6h-12.07l.88,2.27v28.27l-.88,2.27h14.05l-.88-2.27v-28.06c.93-.42,1.68-.59,2.25-.5.57.08,1.01.36,1.3.84.29.48.49,1.11.59,1.89.1.79.15,1.67.15,2.65v23.18l-.88,2.27Z"/>
          <path class="cls-2" d="M120.52,15.59c1.96,0,3.53-.59,4.71-1.77,1.18-1.18,1.77-2.75,1.77-4.71s-.59-3.49-1.77-4.67c-1.18-1.18-2.75-1.77-4.71-1.77s-3.49.59-4.67,1.77c-1.18,1.18-1.77,2.73-1.77,4.67s.59,3.53,1.77,4.71c1.18,1.18,2.73,1.77,4.67,1.77Z"/>
          <path class="cls-7" d="M153.16,51.18c-1.94,0-3.49.59-4.67,1.77-1.18,1.18-1.77,2.73-1.77,4.67s.59,3.53,1.77,4.71c1.18,1.18,2.73,1.77,4.67,1.77s3.53-.59,4.71-1.77c1.18-1.18,1.77-2.75,1.77-4.71s-.59-3.49-1.77-4.67c-1.18-1.18-2.75-1.77-4.71-1.77Z"/>
        </g>
      </g>
      <g>
        <path class="cls-10" d="M13.17.13l.02,17.97c.93-.65,1.91-1.13,2.94-1.45,1.04-.32,2.29-.49,3.74-.49,2.24,0,4.03.28,5.35.86,1.32.57,2.32,1.32,2.99,2.23.67.91,1.1,1.91,1.29,3.01.18,1.09.28,2.17.28,3.24l.02,22.09.89,2.27h-14.06s.88-2.26.88-2.26l-.02-23.19c0-.98-.05-1.89-.15-2.74-.1-.84-.3-1.54-.59-2.08s-.73-.89-1.31-1.03c-.58-.14-1.33,0-2.25.42l.02,28.62.89,2.27H.04s.88-2.26.88-2.26l-.04-43.51L0,1.82,13.17.13Z"/>
        <path class="cls-10" d="M49.32,50.72h-2.61c-2.5,0-4.68-.5-6.54-1.51-1.87-1.01-3.43-2.32-4.67-3.93-1.25-1.61-2.18-3.44-2.8-5.49-.62-2.05-.93-4.11-.93-6.19,0-2.08.3-4.15.92-6.23.61-2.08,1.55-3.95,2.79-5.62,1.25-1.67,2.8-3.03,4.67-4.06,1.86-1.04,4.04-1.56,6.54-1.56h2.61c2.5,0,4.68.51,6.55,1.55,1.87,1.04,3.42,2.39,4.67,4.06,1.25,1.67,2.18,3.54,2.8,5.62.62,2.08.93,4.15.93,6.23s-.31,4.14-.92,6.19c-.62,2.05-1.55,3.88-2.79,5.49-1.25,1.61-2.8,2.93-4.67,3.94-1.87,1.01-4.05,1.52-6.54,1.52ZM47.99,17.01c-.28,0-.55.26-.82.78-.27.52-.52,1.21-.76,2.08-.24.87-.45,1.87-.63,2.99-.18,1.12-.33,2.29-.46,3.49-.13,1.21-.22,2.42-.29,3.64-.07,1.22-.1,2.35-.1,3.39v.42c0,1.57.08,3.29.24,5.15.16,1.87.37,3.6.66,5.22.28,1.61.61,2.96.97,4.04.37,1.08.77,1.62,1.22,1.62s.86-.54,1.24-1.62c.38-1.08.7-2.43.96-4.04.26-1.61.47-3.35.63-5.22.15-1.87.23-3.58.23-5.16v-.42c0-1.04-.04-2.17-.11-3.39-.07-1.22-.17-2.43-.3-3.64-.13-1.21-.28-2.37-.47-3.49-.18-1.12-.4-2.12-.63-2.99-.24-.87-.49-1.56-.76-2.08-.27-.52-.54-.78-.82-.78Z"/>
        <path class="cls-10" d="M78.94,47.54l.89,2.27h-14.06s.88-2.26.88-2.26l-.04-43.51-.89-2.27L78.9.07l.04,47.47Z"/>
        <path class="cls-10" d="M111.18,49.78h-15.44c-2.38.02-4.48-.45-6.29-1.39-1.81-.94-3.31-2.18-4.51-3.72-1.19-1.54-2.09-3.29-2.7-5.26-.61-1.96-.91-3.97-.91-6.02,0-2.05.3-4.05.9-6.02.6-1.96,1.5-3.72,2.71-5.26,1.2-1.54,2.7-2.79,4.5-3.73,1.79-.94,3.9-1.41,6.31-1.42h3.11s-.01-13.01-.01-13.01l-.89-2.27,13.17-1.69.04,49.78ZM97.85,17.85c-.53,0-1,.44-1.41,1.33-.41.88-.75,2.06-1.03,3.51-.28,1.46-.5,3.12-.65,4.99-.15,1.87-.23,3.77-.23,5.7,0,1.94.07,3.84.19,5.7.13,1.87.33,3.53.59,4.99.27,1.46.62,2.63,1.06,3.51.44.88.93,1.32,1.5,1.32h1.01s-.03-31.06-.03-31.06h-1.01Z"/>
        <path class="cls-10" d="M191.13,54.72c0,1.18-.21,2.39-.63,3.64-.42,1.25-1.08,2.39-1.97,3.41-.9,1.02-2.04,1.86-3.43,2.51-1.39.65-3.06.97-5.03.97-2.1,0-3.75-.01-4.94-.04-1.19-.03-2.18-.06-2.97-.1-.79-.04-1.48-.08-2.08-.1-.6-.03-1.37-.04-2.29-.04h-1.73s2.18-13.42,2.18-13.42h1.52s5.23,12.83,5.23,12.83h.97c.36,0,.69-.25.97-.76.28-.51.52-1.16.73-1.98.21-.81.38-1.74.52-2.78.14-1.04.25-2.1.33-3.18.08-1.08.15-2.14.19-3.18.04-1.04.08-1.96.1-2.78h-3.11c-2.41,0-4.52-.46-6.31-1.4-1.8-.94-3.3-2.18-4.51-3.72-1.21-1.54-2.11-3.29-2.72-5.26-.61-1.96-.91-3.97-.91-6.02,0-2.05.3-4.05.9-6.02.6-1.96,1.5-3.72,2.69-5.26,1.19-1.54,2.69-2.79,4.5-3.73,1.81-.94,3.91-1.41,6.29-1.42h15.49s.03,37.82.03,37.82ZM178.77,17.78h-1.01c-.56,0-1.06.44-1.49,1.33-.43.88-.78,2.06-1.05,3.51-.27,1.46-.46,3.12-.58,4.99-.12,1.87-.19,3.77-.18,5.7,0,1.94.08,3.84.24,5.7.16,1.87.37,3.53.66,4.99.28,1.46.63,2.63,1.03,3.51.41.88.88,1.32,1.41,1.32h1.01s-.03-31.06-.03-31.06Z"/>
      </g>
    </g>
  </g>
</svg>