<?xml version="1.0" encoding="UTF-8"?>
<svg id="Layer_2" data-name="Layer 2" xmlns="http://www.w3.org/2000/svg" xmlns:xlink="http://www.w3.org/1999/xlink" viewBox="0 0 628.32 512.19">
  <defs>
    <style>
      .cls-1 {
        fill: url(#linear-gradient-3);
      }

      .cls-2 {
        fill: url(#linear-gradient-2);
      }

      .cls-3 {
        fill: url(#linear-gradient);
      }

      .cls-4 {
        fill: #fff;
      }
    </style>
    <linearGradient id="linear-gradient" x1="380.12" y1="144.18" x2="628.32" y2="144.18" gradientUnits="userSpaceOnUse">
      <stop offset="0" stop-color="#fff"/>
      <stop offset=".24" stop-color="#fff"/>
      <stop offset=".26" stop-color="#fff" stop-opacity=".94"/>
      <stop offset=".31" stop-color="#fff" stop-opacity=".8"/>
      <stop offset=".37" stop-color="#fff" stop-opacity=".56"/>
      <stop offset=".45" stop-color="#fff" stop-opacity=".24"/>
      <stop offset=".46" stop-color="#fff" stop-opacity=".2"/>
      <stop offset=".46" stop-color="#fff" stop-opacity=".21"/>
      <stop offset=".5" stop-color="#fff" stop-opacity=".27"/>
      <stop offset=".56" stop-color="#fff" stop-opacity=".3"/>
      <stop offset=".65" stop-color="#fff" stop-opacity=".31"/>
      <stop offset=".65" stop-color="#fff" stop-opacity=".31"/>
      <stop offset=".67" stop-color="#fff" stop-opacity=".48"/>
      <stop offset=".7" stop-color="#fff" stop-opacity=".61"/>
      <stop offset=".73" stop-color="#fff" stop-opacity=".73"/>
      <stop offset=".76" stop-color="#fff" stop-opacity=".83"/>
      <stop offset=".8" stop-color="#fff" stop-opacity=".91"/>
      <stop offset=".84" stop-color="#fff" stop-opacity=".96"/>
      <stop offset=".9" stop-color="#fff" stop-opacity=".99"/>
      <stop offset="1" stop-color="#fff"/>
    </linearGradient>
    <linearGradient id="linear-gradient-2" x1="64.18" y1="311.19" x2="251.25" y2="311.19" gradientUnits="userSpaceOnUse">
      <stop offset="0" stop-color="#fff" stop-opacity=".2"/>
      <stop offset=".05" stop-color="#fff" stop-opacity=".34"/>
      <stop offset=".11" stop-color="#fff" stop-opacity=".49"/>
      <stop offset=".18" stop-color="#fff" stop-opacity=".63"/>
      <stop offset=".26" stop-color="#fff" stop-opacity=".75"/>
      <stop offset=".34" stop-color="#fff" stop-opacity=".84"/>
      <stop offset=".44" stop-color="#fff" stop-opacity=".91"/>
      <stop offset=".55" stop-color="#fff" stop-opacity=".96"/>
      <stop offset=".69" stop-color="#fff" stop-opacity=".99"/>
      <stop offset="1" stop-color="#fff"/>
    </linearGradient>
    <linearGradient id="linear-gradient-3" x1="285.62" y1="270.3" x2="472.74" y2="270.3" gradientUnits="userSpaceOnUse">
      <stop offset="0" stop-color="#fff"/>
      <stop offset=".31" stop-color="#fff" stop-opacity=".99"/>
      <stop offset=".45" stop-color="#fff" stop-opacity=".96"/>
      <stop offset=".56" stop-color="#fff" stop-opacity=".91"/>
      <stop offset=".66" stop-color="#fff" stop-opacity=".84"/>
      <stop offset=".74" stop-color="#fff" stop-opacity=".75"/>
      <stop offset=".82" stop-color="#fff" stop-opacity=".63"/>
      <stop offset=".89" stop-color="#fff" stop-opacity=".49"/>
      <stop offset=".95" stop-color="#fff" stop-opacity=".34"/>
      <stop offset="1" stop-color="#fff" stop-opacity=".2"/>
    </linearGradient>
  </defs>
  <g id="Layer_1-2" data-name="Layer 1">
    <g>
      <path class="cls-3" d="M595.19,177.55h-181.41c-9.14,0-17.1-3.18-23.65-9.49-6.55-6.3-10.01-14.48-10.01-23.65s3.42-17.32,9.87-23.79c5.78-5.78,12.99-9.12,20.97-9.75-.02-.02-.04-.06-.06-.08h186c8.48.4,16.05,3.83,21.95,9.97,6.28,6.55,9.47,14.5,9.47,23.65s-3.3,17.22-9.61,23.53c-6.3,6.28-14.42,9.61-23.53,9.61Z"/>
      <path class="cls-2" d="M251.25,220.73v258.32c0,9.16-3.46,17.34-10.01,23.65-6.53,6.28-14.48,9.49-23.63,9.49s-17.24-3.32-23.53-9.61c-6.28-6.28-9.61-14.42-9.61-23.53v-253.2c0-36.28-14.28-52.45-46.33-52.45-15.21,0-28.4,3.81-40.32,11.66l-.38.24c-20.83,13.84-33.27,37.4-33.27,63.04v-104.86c8.62-7.45,17.64-13.86,26.99-19.15,16.52-9.39,36.11-14.14,58.27-14.14,20.67,0,38.97,5.04,54.4,14.92,15.37,9.87,27.27,23.51,35.41,40.53,7.98,16.68,12,35.21,12,55.09Z"/>
      <path class="cls-1" d="M472.74,141.4v224.46c-8.64,7.47-17.66,13.9-27.01,19.2-16.52,9.39-36.13,14.14-58.29,14.14-20.65,0-38.95-5.02-54.38-14.92-15.37-9.87-27.29-23.51-35.43-40.53-7.96-16.66-12-35.19-12-55.09v-53.97c0-9.18,3.46-17.36,10.01-23.67,6.55-6.28,14.5-9.47,23.65-9.47s17.22,3.3,23.53,9.61c6.28,6.3,9.61,14.44,9.61,23.53v48.86c0,36.28,14.28,52.45,46.31,52.45,15.23,0,28.42-3.81,40.32-11.66l.38-.24c20.85-13.84,33.27-37.38,33.27-63.02v-117.95c0-.58.02-1.15.04-1.71Z"/>
      <circle class="cls-4" cx="319.02" cy="144.2" r="33.4"/>
      <path class="cls-4" d="M66.23,33.06v333.87c0,8.55-3.2,16.9-9.32,22.87-.05.05-.1.1-.15.15-6.53,6.28-14.48,9.49-23.63,9.49s-17.24-3.32-23.53-9.61c-6.28-6.28-9.61-14.42-9.61-23.53V33.66c0-9.16,3.18-17.12,9.47-23.65C15.61,3.63,23.52.18,32.42,0c9.11-.18,18.04,3.42,24.48,9.86.08.08.16.16.24.24,5.97,6.08,9.09,14.42,9.09,22.95Z"/>
      <path class="cls-4" d="M537.33,78.39v288.54c0,8.55-3.2,16.9-9.32,22.87-.05.05-.1.1-.15.15-6.53,6.28-14.48,9.49-23.63,9.49s-17.24-3.32-23.53-9.61c-6.28-6.28-9.61-14.42-9.61-23.53V78.99c0-9.16,3.18-17.12,9.47-23.65,6.14-6.38,14.06-9.83,22.95-10,9.11-.18,18.04,3.42,24.48,9.86.08.08.16.16.24.24,5.97,6.08,9.09,14.42,9.09,22.95Z"/>
      <g>
        <path class="cls-4" d="M285.52,493.8v-69.16c0-1.08.88-1.95,1.95-1.95h4.04c1.08,0,1.95.88,1.95,1.95v61.96c0,1.08.88,1.95,1.95,1.95h13.17c1.08,0,1.95.88,1.95,1.95v3.3c0,1.08-.88,1.95-1.95,1.95h-21.12c-1.08,0-1.95-.88-1.95-1.95Z"/>
        <path class="cls-4" d="M358.47,497.25c-7.29,0-12.98-1.68-17.08-5.03-4.1-3.35-6.15-8.01-6.15-13.98s2.05-10.89,6.15-14.29c4.1-3.39,9.79-5.09,17.08-5.09h16.28c1.14,0,2.06-.98,1.95-2.12-.53-5.58-2.01-9.84-4.44-12.79-2.73-3.31-6.92-4.97-12.55-4.97-3.73,0-6.85.75-9.38,2.24-2.11,1.24-3.91,3.06-5.41,5.46-.52.84-1.57,1.18-2.47.78l-3.04-1.35c-1.12-.5-1.5-1.88-.82-2.89,1.42-2.1,2.97-3.89,4.66-5.35,2.19-1.9,4.66-3.33,7.39-4.29,2.73-.95,5.75-1.43,9.07-1.43,5.55,0,10.14,1.12,13.79,3.35,3.64,2.24,6.38,5.59,8.2,10.06,1.82,4.47,2.73,10.1,2.73,16.89v31.34c0,1.08-.88,1.95-1.95,1.95h-3.06c-1.03,0-1.88-.79-1.95-1.82l-.12-1.71c-.12-1.68-2.18-2.44-3.35-1.22-1.35,1.4-2.88,2.59-4.6,3.56-3.15,1.78-6.79,2.67-10.93,2.67ZM357.98,490.42c3.97,0,7.39-.81,10.25-2.42s5.03-3.99,6.52-7.14c1.49-3.15,2.24-7.04,2.24-11.68v-1.52c0-1.08-.88-1.95-1.95-1.95h-15.56c-5.96,0-10.25,1.1-12.86,3.29-2.61,2.2-3.91,5.28-3.91,9.25s1.35,6.79,4.04,8.94c2.69,2.15,6.44,3.23,11.24,3.23Z"/>
        <path class="cls-4" d="M441.16,497.25c-4.72,0-8.94-1.14-12.67-3.42-2.22-1.36-4.21-3.02-5.96-4.98-1.18-1.32-3.36-.54-3.42,1.23l-.12,3.79c-.03,1.05-.9,1.89-1.95,1.89h-3.23c-1.08,0-1.95-.88-1.95-1.95v-69.16c0-1.08.88-1.95,1.95-1.95h3.54c1.08,0,1.95.88,1.95,1.95v14.41c0,1.8,2.21,2.62,3.42,1.29,1.71-1.87,3.63-3.46,5.77-4.77,3.73-2.28,7.95-3.42,12.67-3.42,5.47,0,10.31,1.39,14.53,4.16,4.22,2.78,7.53,6.61,9.94,11.49,2.4,4.89,3.6,10.52,3.6,16.89s-1.2,11.91-3.6,16.83c-2.4,4.93-5.71,8.78-9.94,11.55-4.22,2.77-9.07,4.16-14.53,4.16ZM439.66,490.54c4.31,0,8.12-1.1,11.43-3.29,3.31-2.19,5.92-5.24,7.83-9.13,1.9-3.89,2.86-8.36,2.86-13.42s-.93-9.52-2.8-13.42c-1.86-3.89-4.45-6.94-7.76-9.13-3.31-2.19-7.12-3.29-11.43-3.29-3.98,0-7.52,1.1-10.62,3.29-3.11,2.2-5.53,5.24-7.27,9.13-1.74,3.89-2.61,8.37-2.61,13.42s.87,9.52,2.61,13.42c1.74,3.89,4.14,6.94,7.2,9.13,3.06,2.2,6.58,3.29,10.56,3.29Z"/>
        <path class="cls-4" d="M488.02,493.8v-3.82c0-.44.15-.87.43-1.22l36.04-45.11c1.02-1.28.11-3.18-1.53-3.18h-32.99c-1.08,0-1.95-.88-1.95-1.95v-2.92c0-1.08.88-1.95,1.95-1.95h45.03c1.08,0,1.95.88,1.95,1.95v3.45c0,.44-.15.87-.42,1.22l-36.18,45.49c-1.02,1.28-.11,3.17,1.53,3.17h33.49c1.08,0,1.95.88,1.95,1.95v2.92c0,1.08-.88,1.95-1.95,1.95h-45.41c-1.08,0-1.95-.88-1.95-1.95Z"/>
      </g>
    </g>
  </g>
</svg>